<?xml version="1.0" encoding="UTF-8" standalone="no"?>
<!-- Created with Inkscape (http://www.inkscape.org/) -->

<svg
   version="1.1"
   id="svg5536"
   width="1440"
   height="1440"
   viewBox="0 0 1440 1440"
   xmlns:xlink="http://www.w3.org/1999/xlink"
   xmlns="http://www.w3.org/2000/svg"
   xmlns:svg="http://www.w3.org/2000/svg">
  <defs
     id="defs5540">
    <linearGradient
       id="linearGradient6528">
      <stop
         style="stop-color:#100f48;stop-opacity:1;"
         offset="0"
         id="stop6524" />
      <stop
         style="stop-color:#000000;stop-opacity:0;"
         offset="1"
         id="stop6526" />
    </linearGradient>
    <linearGradient
       id="linearGradient6460">
      <stop
         style="stop-color:#000034;stop-opacity:1;"
         offset="0.01647059"
         id="stop6456" />
      <stop
         style="stop-color:#000000;stop-opacity:0;"
         offset="1"
         id="stop6458" />
    </linearGradient>
    <clipPath
       clipPathUnits="userSpaceOnUse"
       id="clipPath6197">
      <g
         id="g6201"
         transform="translate(-652.72289,-514.87191)">
        <path
           d="M -7.7791118,1073.5174 H 1072.2209 V -6.4825932 H -7.7791118 Z"
           id="path6199" />
      </g>
    </clipPath>
    <clipPath
       clipPathUnits="userSpaceOnUse"
       id="clipPath6203">
      <g
         id="g6207"
         transform="translate(-523.19159,-440.29961)">
        <path
           d="M -7.7791118,1073.5174 H 1072.2209 V -6.4825932 H -7.7791118 Z"
           id="path6205" />
      </g>
    </clipPath>
    <linearGradient
       xlink:href="#linearGradient6460"
       id="linearGradient6466"
       x1="564.4118"
       y1="640.39203"
       x2="541.21112"
       y2="655.1571"
       gradientUnits="userSpaceOnUse"
       gradientTransform="matrix(3.9657302,0,0,3.851977,-1687.1797,-1579.1017)" />
    <linearGradient
       xlink:href="#linearGradient6528"
       id="linearGradient6530"
       x1="561.66815"
       y1="463.22891"
       x2="540.98651"
       y2="451.79858"
       gradientUnits="userSpaceOnUse"
       gradientTransform="matrix(4.0897148,0,0,3.861674,-1758.8621,-1583.8894)" />
  </defs>
  <g
     id="g5544"
     transform="matrix(1.3333333,0,0,-1.3333333,0,1440)">
    <g
       id="g370"
       transform="matrix(1.0354427,0,0,0.99270541,-42.165677,-12.463113)">
      <g
         id="g6213"
         style="fill:#ffffff;fill-opacity:1"
         transform="matrix(3.9657302,0,0,3.851977,-1541.752,-1501.4108)">
        <g
           id="g5556"
           transform="translate(523.19159,440.29961)"
           clip-path="url(#clipPath6203)"
           style="fill:#ffffff;fill-opacity:1">
          <path
             d="M 0,0 C 2.58,-4.474 5.61,-8.646 9.026,-12.47 3.695,-18.435 -2.58,-23.54 -9.558,-27.552 c -9.696,-5.567 -20.751,-9.021 -32.55,-9.74 h -9.214 c -11.902,0.725 -23.057,4.237 -32.808,9.885 -11.343,6.581 -20.794,16.047 -27.353,27.407 -6.141,10.646 -9.729,22.949 -9.938,36.079 v 2.413 c 0.209,13.13 3.797,25.434 9.938,36.08 4.049,7.015 9.204,13.307 15.221,18.643 -6.017,5.342 -11.172,11.633 -15.221,18.649 -6.141,10.646 -9.729,22.949 -9.938,36.079 v 2.413 c 0.209,13.13 3.802,25.439 9.943,36.085 6.554,11.354 16.01,20.826 27.348,27.402 9.751,5.647 20.906,9.16 32.808,9.885 h 9.214 c 11.799,-0.719 22.854,-4.173 32.55,-9.74 6.978,-4.012 13.253,-9.118 18.584,-15.082 -3.416,-3.819 -6.441,-7.997 -9.021,-12.465 -5.122,-8.876 -8.468,-18.906 -9.563,-29.606 -0.112,-1.083 -0.198,-2.177 -0.262,-3.276 -2.178,18.449 -17.866,32.753 -36.895,32.753 h -0.129 c -20.466,-0.069 -37.034,-16.68 -37.034,-37.162 0,-20.306 16.289,-36.809 36.52,-37.152 -1.33,-0.011 -2.65,-0.054 -3.964,-0.134 h 4.478 V 74.572 h -4.478 c 1.207,-0.075 2.419,-0.118 3.642,-0.134 -20.081,-0.515 -36.198,-16.949 -36.198,-37.152 0,-20.483 16.568,-37.094 37.034,-37.163 h 0.129 c 19.029,0 34.717,14.304 36.895,32.749 0.064,-1.1 0.15,-2.188 0.262,-3.271 C -8.463,18.9 -5.117,8.876 0,0"
             style="fill:#ffffff;fill-opacity:1;fill-rule:nonzero;stroke:none"
             id="path5558" />
        </g>
        <g
           id="g5560"
           transform="translate(652.72289,514.87191)"
           clip-path="url(#clipPath6197)"
           style="fill:#ffffff;fill-opacity:1">
          <path
             d="m 0,0 c 6.328,-10.974 9.948,-23.706 9.948,-37.286 0,-13.58 -3.62,-26.314 -9.948,-37.286 -6.533,-11.318 -15.94,-20.757 -27.225,-27.332 -9.783,-5.697 -20.981,-9.231 -32.936,-9.96 h -9.215 c -11.745,0.714 -22.762,4.14 -32.421,9.665 -7.031,4.022 -13.349,9.155 -18.708,15.157 -3.416,3.823 -6.446,7.996 -9.026,12.47 -5.117,8.876 -8.464,18.9 -9.558,29.6 v 7.686 h 37.163 c 0,-1.041 0.043,-2.076 0.129,-3.095 v -3.197 c 0.054,0.623 0.097,1.25 0.134,1.878 2.178,-18.446 17.865,-32.749 36.894,-32.749 0.086,0 0.172,0 0.258,0.005 20.407,0.134 36.906,16.717 36.906,37.158 0,20.203 -16.118,36.637 -36.198,37.151 1.223,0.017 2.435,0.06 3.642,0.135 h -9.215 c -11.745,0.713 -22.762,4.141 -32.421,9.664 -4.484,2.565 -8.673,5.578 -12.513,8.979 -2.183,1.941 -4.253,4.001 -6.195,6.178 -3.416,3.825 -6.446,7.997 -9.026,12.471 -5.117,8.875 -8.464,18.9 -9.558,29.6 v 15.371 c 1.094,10.7 4.441,20.73 9.563,29.606 2.58,4.468 5.605,8.646 9.021,12.464 5.359,6.002 11.677,11.135 18.708,15.157 9.659,5.525 20.676,8.952 32.421,9.665 h 9.215 c 11.955,-0.729 23.153,-4.264 32.936,-9.96 C -15.94,132.62 -6.538,123.18 -0.006,111.869 6.323,100.896 9.948,88.158 9.948,74.578 h -37.553 c 0,20.439 -16.499,37.023 -36.906,37.157 -0.086,0.005 -0.172,0.005 -0.258,0.005 -19.029,0 -34.716,-14.304 -36.894,-32.754 -0.037,0.628 -0.08,1.261 -0.134,1.883 v -3.197 c -0.086,-1.019 -0.129,-2.054 -0.129,-3.094 0,-1.041 0.043,-2.076 0.129,-3.095 v -3.197 c 0.054,0.622 0.097,1.255 0.134,1.883 2.15,-18.236 17.517,-32.427 36.251,-32.744 -1.33,-0.01 -2.65,-0.053 -3.964,-0.133 h 9.215 c 11.955,-0.73 23.153,-4.265 32.936,-9.96 4.29,-2.5 8.308,-5.412 12.003,-8.689 C -9.204,13.307 -4.05,7.015 0,0"
             style="fill:#ffffff;fill-opacity:1;fill-rule:nonzero;stroke:none"
             id="path5562" />
        </g>
      </g>
      <path
         style="fill:url(#linearGradient6466);fill-opacity:1;stroke-width:2.93133"
         d="m 568.71628,960.74061 c 0,0 -40.16912,41.20179 -52.38051,45.57169 -12.2114,4.3699 0,-0.6242 0,-0.6242 L 418.96591,894.568 c 0,0 59.7716,-25.59508 75.83923,-106.43802 16.06764,-80.84298 -0.32122,-0.62429 -0.32122,-0.62429 0,0 3.53489,103.62881 74.23252,173.23492 z"
         id="path6454" />
      <path
         style="fill:url(#linearGradient6530);fill-opacity:1;stroke-width:2.98055"
         d="m 492.15818,322.7003 c 0,0 -7.03005,-84.96706 76.39313,-176.5722 83.42322,-91.605131 0,0 0,0 0,0 -35.61888,-40.71339 -82.95455,-62.840185 -47.33559,-22.126873 7.03013,2.655206 7.03013,2.655206 L 414.82771,212.95116 c 0,0 66.08239,34.07536 77.33047,109.74914 z"
         id="path6522" />
    </g>
  </g>
</svg>
